<svg height="512" viewBox="0 0 58 58" width="512" xmlns="http://www.w3.org/2000/svg"><g id="Page-1" fill="none" fill-rule="evenodd"><g id="030---Reef" fill-rule="nonzero" transform="translate(-1)"><path id="Shape" d="m55.246 17.033c-.5342215-.1358967-1.077668.1861456-1.215.72-.031.133-.882 3.247-4.031 3.247-1.3267991-.0630327-2.6558619.0611883-3.948.369.8723591-1.5690693 1.5961729-3.216231 2.162-4.92 2.0474663-1.0176399 3.4578685-2.9834396 3.766-5.249.0917161-.5335055-.2577499-1.0431302-.7884648-1.1498147-.5307149-.10668452-1.0499667.2283102-1.1715352.7558147-.1812509 1.1510605-.7159336 2.2172806-1.53 3.051-.1561689-1.8585799-.6994754-3.6639244-1.595-5.3-.2468713-.49429485-.8477051-.69487128-1.342-.448s-.6948713.84770515-.448 1.342c1.79 3.579 1.672 5.487.774 7.667-1.0817155-.6893859-1.7773551-1.8463172-1.879-3.125-.001933-.5522847-.4512153-.998433-1.0035-.9965s-.998433.4512153-.9965 1.0035c.1157787 2.0488268 1.2524882 3.9026474 3.026 4.935-.8604459 1.6215812-1.5991483 3.3048868-2.21 5.036-.6997445-.6647739-1.4562942-1.2670691-2.261-1.8-2.221-1.48-.724-4.592-.659-4.724.2460429-.494571.044571-1.0949571-.45-1.341s-1.0949571-.044571-1.341.45c-.828 1.656-1.614 5.31 1.34 7.279 1.0103359.659749 1.9266639 1.4532944 2.724 2.359-.048.2-.1.387-.146.592-.3354789 1.4839836-.529679 2.996401-.58 4.517-.6334488-.4514648-1.3022846-.8510943-2-1.195-.8254865-.3967583-1.3758576-1.2045795-1.443-2.118-.0027615-.5522847-.4527153-.9977614-1.005-.9949999-.5522847.0027614-.9977614.4527152-.995 1.0049999.0712079 1.6698775 1.0510545 3.1667054 2.553 3.9 1.0945607.5336644 2.1000902 1.2332511 2.981 2.074.0682919.7028461.1761295 1.4012863.323 2.092-1.4187658.5328498-3.0158821.2372871-4.15-.768-.3923789-.3789722-1.0160848-.3735524-1.4018186.0121814s-.3911536 1.0094397-.0121814 1.4018186c1.1213654 1.0419729 2.5952591 1.6213853 4.126 1.622.6702263-.0062972 1.3349437-.1218121 1.968-.342.4043462 1.25424.9938565 2.4410129 1.749 3.521.2085496.2968609.5615227.4574857.922346.4197252s.6728939-.2679828.8154645-.6015888c.1425706-.3336059.0932761-.7182621-.1288105-1.0051364-.8996733-1.344586-1.5315484-2.8500854-1.861-4.434.903886-.9591109 2.0734757-1.6266023 3.359-1.917.348821-.0847423.6254598-.3499483.7248402-.6948844.0993804-.344936.0062538-.7166761-.2440075-.9740215-.2502612-.2573454-.6192576-.3608098-.9668327-.2710941-1.1715278.2822649-2.2743691.7971282-3.243 1.514-.089214-1.0566925-.0915552-2.1189245-.007-3.176.1.005.2.019.3.019 2.2399094-.0999981 4.35498-1.0599285 5.905-2.68.6775987-.851144 1.8212905-1.1774538 2.846-.812.3197527.1596977.7004141.1366785.9985928-.0603866.2981786-.1970651.4685741-.5382372.447-.895-.0215741-.3567629-.2318401-.6749157-.5515928-.8346134-1.793985-.7619725-3.8745769-.2823948-5.154 1.188-1.1934596 1.2434114-2.814988 1.9866119-4.536 2.079.2250969-1.3559191.5690907-2.6893969 1.028-3.985 1.37-1.379 2.833-1.392 5.21-1.392 2.8389192-.0471877 5.2900648-2.0003033 5.97-4.757.1324787-.5338033-.1909825-1.0743944-.724-1.21z" fill="#26b99a"/><circle id="Oval" cx="38" cy="9" fill="#2fa8cc" r="3"/><circle id="Oval" cx="45" cy="2" fill="#2fa8cc" r="2"/><circle id="Oval" cx="39" cy="2" fill="#67b9cc" r="1"/><path id="Shape" d="m51.565 54.982c-13.837-7.282-8.555-18.982-.565-18.982 4.418278 0 8 3.581722 8 8v11z" fill="#7f8c8d"/><path id="Shape" d="m32.8 28.55c.001115.7810619-.304057 1.5314258-.85 2.09-1.9940991 1.9497182-4.5016865 3.2919537-7.23 3.87-.4702807.1106705-.789055.5484539-.75 1.03.05.77.07 1.56.07 2.32.0518948 5.0038807-.6837654 9.9847726-2.18 14.76l-12.13-3.84c.93-1.11 2.27-4.32 3.21-7.73-3.32027782-.1809033-6.47251927-1.5182178-8.91-3.78-1.10943312-1.0065071-1.33317292-2.6655588-.53-3.93.49802521-.7491076 1.30591656-1.2352009 2.20104115-1.3243259.89512458-.0891249 1.78300255.2281256 2.41895885.8643259 1.34950981 1.2541978 3.0833512 2.0153965 4.92 2.16.2719425.0248641.5422241-.0625647.7480859-.2419856.2058619-.1794209.3293946-.4352247.3419141-.7080144.0349831-.4791541.0449966-.9598046.03-1.44.0052604-1.910474-.2401675-3.8133807-.73-5.66-.1256735-.4501069-.542946-.7558313-1.01-.74-2.42469988.124118-4.83389868-.4521457-6.94-1.66-1.31763813-.8186522-1.82278189-2.4881951-1.18-3.9.37905287-.7781931 1.07526894-1.3551343 1.91032549-1.5830512.83505654-.2279168 1.72783779-.0846697 2.44967451.3930512.21272748.1331218.43695777.2469103.67.34.36153372.14032.7715986.0589579 1.0521715-.2087643.2805728-.2677222.3810569-.6735251.2578285-1.0412357-.66835376-1.9100277-1.18659448-3.869312-1.55-5.86-.26871409-1.5453399.69433425-3.03799863 2.2130643-3.43009761 1.51873-.39209898 3.0839909.44781214 3.5969357 1.93009761l.01.04c.5611065 1.5608146 1.2362614 3.078242 2.02 4.54 1.0346008-.4731692 1.8146396-1.3698493 2.14-2.46.2319704-1.1046866 1.0681876-1.983489 2.16-2.27 1.0288727-.261855 2.1196899.0353977 2.8734714.7830343.7537816.7476366 1.0599531 1.8359841.8065286 2.8669657-.6276419 2.4680811-2.191383 4.5949124-4.36 5.93-.0223598.0136117-.0425793.0304614-.06.05-.3663767.2867609-.4865838.7883147-.29 1.21.13.27.29.6.45.95.01.02.02.05.03.07.43.91.92 1.99 1.22 2.76.27.7.52 1.41.73 2.13.0659011.2575067.2316107.4781813.4605245.6132779.2289138.1350967.5021944.1734983.7594755.1067221 1.4458058-.3524706 2.7713914-1.0843043 3.84-2.12.8412561-.8658206 2.1270906-1.1277498 3.24-.66 1.1351159.4546775 1.8767589 1.5572269 1.87 2.78z" fill="#ff5364"/><path id="Shape" d="m17.98 33.79c.1039115.54103-.249337 1.0641955-.79 1.17-.7499273.1264256-1.5095198.1866576-2.27.18-.5649077.0034217-1.1294378-.0299824-1.69-.1.4943176-.0491705.8776017-.4537481.9-.95.02-.35.03-.68.04-.97.8817825.0513162 1.7665092.0111014 2.64-.12.2600362-.0515718.5298996.002867.7496063.1512159.2197068.148349.3710514.3783157.4203937.6387841z" fill="#df4d60"/><path id="Shape" d="m20.65 22.87c-.8467157.4235396-1.7665224.6814928-2.71.76h-.03c-.5522847.0082842-1.0067157-.4327153-1.015-.985-.0082842-.5522847.4327153-1.0067157.985-1.015.9228179-.1288424 1.8103646-.4416941 2.61-.92-.3663767.2867609-.4865838.7883147-.29 1.21.13.27.29.6.45.95z" fill="#df4d60"/><g fill="#fb7b76"><circle id="Oval" cx="17" cy="44" r="1"/><circle id="Oval" cx="20" cy="40" r="1"/><circle id="Oval" cx="20" cy="32" r="1"/><circle id="Oval" cx="18" cy="27" r="1"/><circle id="Oval" cx="13" cy="22" r="1"/></g><path id="Shape" d="m48.488 50.516c1.1457917-2.5187592.4269706-5.4942202-1.742324-7.2121107-2.1692947-1.7178904-5.2303-1.7357193-7.4194586-.0432149-2.1891586 1.6925045-2.9425911 4.6593903-1.8262174 7.1913256z" fill="#95a5a5"/><circle id="Oval" cx="16" cy="3" fill="#2fa8cc" r="3"/><circle id="Oval" cx="5" cy="6" fill="#2fa8cc" r="2"/><circle id="Oval" cx="9" cy="2" fill="#67b9cc" r="1"/><path id="Shape" d="m59 55c0 1.6568542-1.3431458 3-3 3h-52c-1.35121645.0008655-2.53626433-.9016921-2.8945417-2.2045444-.35827737-1.3028522.19864237-2.6844416 1.36030571-3.3746045 1.16166335-.690163 2.64135967-.5185602 3.61423599.4191489-.05726677-.2762377-.08409351-.5579185-.08-.84-.00176012-2.2574908 1.51085537-4.2355655 3.68993183-4.8253907 2.17907647-.5898252 4.48291367.3552247 5.62006817 2.3053907h.01c.5740069-.3577279 1.1882633-.6463948 1.83-.86 1.1740474-.3921152 2.4022616-.5979423 3.64-.61.0696736-.0083174.1398513-.0116592.21-.01 1.7173069-.0232952 3.4172333.3461054 4.97 1.08.6090837.2927073 1.1717781.6734526 1.67 1.13l.01.01c1.4544667-1.5299412 3.3809418-2.5266367 5.47-2.83 1.2764948-.2629885 2.576701-.3936793 3.88-.39 2.3073566-.0425687 4.5975795.4038885 6.72 1.31.6439237.2811414 1.2489112.6441338 1.8 1.08l.01.01c1.4156065-1.3607862 3.496666-1.7670144 5.3201096-1.0384992 1.8234436.7285153 3.0516699 2.4568932 3.1398904 4.4184992.8773907-.7990942 2.1439458-1.0045409 3.2289432-.5237636 1.0849973.4807773 1.783618 1.5570204 1.7810568 2.7437636z" fill="#fac176"/><path id="Shape" d="m18.1 51.91c-.0082843.5522847-.4627153.9932843-1.015.985s-.9932843-.4627153-.985-1.015c.0154811-.592258-.1099631-1.1797207-.366-1.714-.116966-.2407185-.2555342-.4703266-.414-.686.5740069-.3577279 1.1882633-.6463948 1.83-.86.6405727.976059.9716739 2.1227147.95 3.29z" fill="#f18d46"/><path id="Shape" d="m45.52 49.39c-.7798246.5945633-1.3194191 1.4501046-1.52 2.41-.099165.4616905-.5077811.7910852-.98.79-.0672762.0027973-.1346099-.0039361-.2-.02-.2599387-.0529946-.4881678-.2071045-.6344551-.428411-.1462874-.2213065-.1986434-.4916715-.1455449-.751589.2470287-1.1687635.831087-2.2395371 1.68-3.08.6439237.2811414 1.2489112.6441338 1.8 1.08z" fill="#f18d46"/><path id="Shape" d="m27.64 50.21c-.3539293.3554208-.5640507.8290843-.59 1.33-.0108913.5444587-.4554324.9801089-1 .98h-.01c-.2660666.0000543-.520956-.1069899-.7072028-.2969993-.1862468-.1900093-.2881723-.4469884-.2827972-.7130007.0229954-.8907417.347316-1.7473709.92-2.43.6090837.2927073 1.1717781.6734526 1.67 1.13z" fill="#f18d46"/></g></g></svg>